 <svg  version="1.0" xmlns="http://www.w3.org/2000/svg"  width="2800.000000pt" height="2800.000000pt" viewBox="0 0 300.000000 169.000000"  preserveAspectRatio="xMidYMid meet">  <g transform="translate(0.000000,169.000000) scale(0.100000,-0.100000)" fill="#000000" stroke="none"> <path d="M70 1670 c13 -23 41 -40 69 -40 12 0 21 -5 21 -11 0 -5 4 -7 10 -4 6 3 7 -1 4 -9 -8 -20 10 -21 25 -2 9 11 8 17 -8 28 -10 7 -21 25 -24 38 -4 24 -4 24 -6 -2 -1 -35 -13 -35 -55 -3 -40 30 -50 32 -36 5z"/> <path d="M210 1680 c0 -23 24 -57 52 -73 43 -25 47 -14 4 13 -20 12 -36 23 -36 25 0 2 -3 10 -6 19 -10 25 20 19 58 -10 l33 -26 -33 31 c-31 30 -72 42 -72 21z"/> <path d="M307 1675 c-4 -8 -2 -17 2 -20 5 -2 11 4 14 15 6 23 -8 27 -16 5z"/> <path d="M618 1663 c-14 -16 -33 -43 -42 -60 -15 -30 -20 -33 -64 -33 -27 0 -57 -7 -68 -15 -10 -8 -14 -15 -7 -15 6 0 15 5 18 11 5 7 25 8 55 4 l48 -7 28 49 c15 26 36 58 47 71 29 32 16 27 -15 -5z"/> <path d="M863 1664 c-37 -29 -93 -110 -93 -135 0 -24 -12 -30 -46 -20 -33 8 -39 39 -16 78 9 15 10 23 2 28 -6 4 -15 18 -20 31 -5 13 -16 24 -25 24 -19 0 -20 -26 -1 -37 12 -6 14 -30 13 -108 l-2 -100 -27 -3 c-21 -3 -27 1 -30 19 -5 35 -29 44 -81 28 -42 -12 -45 -15 -32 -29 12 -13 13 -22 3 -48 -15 -39 -3 -65 33 -70 13 -2 35 -16 47 -30 l24 -27 -20 35 c-16 26 -27 34 -49 35 -25 0 -28 3 -26 30 5 85 17 104 61 105 17 0 24 -7 28 -30 6 -27 10 -30 45 -30 32 0 39 -3 39 -20 0 -11 9 -29 20 -40 11 -11 20 -22 20 -25 0 -3 -20 -5 -44 -5 -40 0 -45 -3 -55 -31 -13 -39 -4 -79 18 -79 11 0 12 3 4 8 -9 6 -6 11 8 21 17 10 20 10 13 -1 -4 -7 -9 -19 -10 -28 -1 -8 -6 -35 -13 -60 -6 -25 -11 -58 -11 -73 0 -25 3 -27 23 -22 33 10 47 33 40 67 -4 21 0 38 17 60 12 16 23 41 25 55 1 13 8 30 14 36 8 8 10 0 5 -33 -7 -56 19 -96 72 -106 19 -3 37 -10 40 -15 8 -13 24 -11 24 4 0 7 -20 30 -45 51 -37 33 -45 46 -45 75 0 28 9 43 46 79 36 34 44 46 33 53 -17 12 23 48 91 82 38 18 61 22 143 21 53 0 97 3 97 8 0 4 -17 16 -39 27 -44 23 -91 74 -91 100 0 9 -13 28 -30 43 -18 15 -30 21 -30 13 0 -7 11 -20 25 -29 14 -9 25 -25 25 -35 0 -29 49 -82 95 -102 l40 -18 -60 5 c-33 3 -70 11 -83 17 -31 15 -63 69 -78 131 -11 44 -12 47 -13 18 -1 -35 29 -104 61 -139 l20 -21 -36 -11 c-53 -14 -119 -55 -155 -96 -17 -20 -36 -33 -42 -30 -7 5 -5 13 6 25 13 15 14 22 5 40 -9 17 -8 25 4 39 10 11 16 37 16 72 0 32 8 72 20 98 11 24 19 45 17 47 -1 2 -17 -8 -34 -22z m2 -34 c-8 -16 -15 -53 -15 -81 0 -35 -6 -59 -17 -71 -13 -15 -14 -22 -4 -44 10 -23 9 -29 -8 -45 -20 -18 -20 -18 -35 3 -35 50 -13 156 47 224 45 52 53 55 32 14z m-124 -140 c12 -7 19 -21 19 -41 0 -33 25 -89 40 -89 24 0 7 -18 -20 -22 -40 -6 -67 14 -80 60 -23 86 -9 118 41 92z m101 -160 c-36 -34 -42 -45 -42 -80 0 -34 6 -47 38 -77 l37 -35 -30 7 c-51 11 -70 38 -70 100 -1 30 1 52 4 49 3 -2 10 4 15 15 12 21 78 71 86 64 2 -2 -15 -22 -38 -43z m-107 -23 c-11 -6 -29 -12 -40 -14 -12 -1 -5 5 15 16 37 19 59 17 25 -2z m25 -14 c0 -5 -7 -17 -15 -27 -8 -11 -15 -27 -15 -35 0 -9 -9 -27 -20 -41 -13 -17 -20 -41 -20 -72 0 -41 -3 -48 -20 -48 -12 0 -20 7 -20 18 0 25 25 114 40 142 23 46 71 88 70 63z m-82 -9 c26 -8 29 -24 4 -24 -10 0 -23 -5 -30 -12 -16 -16 -25 -4 -17 21 7 23 9 24 43 15z"/> <path d="M1455 1664 c-16 -14 -42 -28 -56 -31 -16 -3 -32 -16 -38 -30 -11 -23 -15 -25 -57 -18 -49 7 -74 -5 -74 -35 0 -15 12 -20 66 -25 41 -5 80 -3 103 4 46 13 103 51 109 71 3 10 -4 7 -19 -7 -13 -12 -46 -32 -72 -43 -40 -18 -59 -20 -113 -15 -53 6 -64 11 -62 24 3 13 14 15 61 13 53 -3 57 -2 67 22 6 16 17 26 30 26 11 0 37 16 58 35 43 40 41 47 -3 9z"/> <path d="M1519 1683 c-16 -94 28 -206 106 -271 22 -18 34 -35 30 -42 -5 -8 -12 -6 -26 6 -15 14 -24 15 -43 6 -19 -9 -27 -8 -36 4 -8 9 -32 14 -69 14 -34 0 -73 8 -100 20 -24 11 -46 19 -48 16 -16 -16 122 -126 158 -126 24 0 29 -12 20 -45 -8 -32 -38 -38 -78 -17 -15 8 -24 9 -28 1 -4 -5 -18 -14 -31 -19 -13 -5 -24 -16 -24 -24 0 -24 18 -28 32 -7 13 18 25 20 114 18 l99 -2 3 -27 c3 -21 -1 -27 -19 -30 -35 -5 -44 -29 -28 -81 12 -42 15 -45 29 -32 13 12 22 13 48 3 40 -15 66 -2 70 35 2 14 14 33 28 41 13 9 24 21 24 27 0 5 -15 -2 -34 -16 -22 -17 -32 -32 -29 -44 8 -30 -21 -45 -61 -31 -20 6 -40 9 -45 6 -12 -8 -35 50 -27 69 3 8 17 15 32 15 24 0 26 3 22 39 -3 38 -2 40 28 46 18 3 35 12 38 20 11 30 26 14 26 -29 0 -50 9 -57 73 -54 24 1 37 6 37 15 0 8 -5 11 -12 7 -10 -5 -10 -4 -2 5 8 9 24 8 69 -4 33 -8 70 -15 83 -15 20 0 22 4 16 23 -12 39 -26 49 -61 44 -24 -4 -42 1 -68 19 -20 13 -44 24 -53 24 -9 0 -24 5 -32 11 -11 8 -7 9 20 6 19 -3 50 1 67 9 27 10 35 22 45 58 7 25 16 46 20 46 4 0 8 5 8 10 0 21 -25 8 -67 -35 -33 -35 -51 -45 -75 -45 -25 0 -41 10 -74 45 -22 25 -45 45 -51 45 -6 0 12 -22 39 -50 42 -43 55 -50 88 -50 33 0 44 6 67 35 15 19 31 35 34 35 13 0 -4 -60 -22 -76 -36 -33 -160 -7 -174 36 -3 11 -21 31 -38 44 -65 49 -127 193 -100 228 6 7 13 22 17 33 5 16 2 15 -13 -5 -20 -24 -20 -24 -14 -2 3 12 3 22 -1 22 -3 0 -7 -3 -7 -7z m-48 -293 c35 0 59 -6 71 -17 15 -13 22 -14 44 -4 23 10 29 9 45 -8 19 -20 19 -21 -10 -36 -63 -32 -153 -11 -219 52 -43 40 -44 42 -15 28 18 -8 56 -15 84 -15z m209 -80 c0 -50 -29 -72 -100 -73 -59 -1 -67 5 -52 38 9 19 19 25 42 25 34 0 90 25 90 40 0 6 5 10 10 10 6 0 10 -18 10 -40z m26 -5 c-2 -7 0 -17 5 -22 5 -5 11 -20 14 -33 5 -25 15 -40 15 -22 0 7 5 12 10 12 6 0 10 -7 10 -16 0 -8 4 -13 8 -10 4 2 8 -4 8 -15 0 -15 -6 -19 -26 -17 -14 2 -24 8 -23 15 2 6 -5 29 -14 50 -18 41 -24 85 -10 76 4 -3 6 -11 3 -18z m51 -20 c12 -9 26 -14 30 -13 4 2 25 -8 46 -21 25 -15 46 -21 62 -17 32 8 55 -2 55 -25 0 -21 4 -21 -97 1 -52 12 -133 61 -133 80 0 14 12 12 37 -5z"/> <path d="M1743 1673 c9 -11 21 -47 26 -79 5 -41 10 -54 16 -41 4 9 1 43 -6 75 -11 43 -19 58 -34 61 -19 3 -19 3 -2 -16z"/> <path d="M1930 1680 c0 -6 5 -10 10 -10 6 0 10 -7 10 -15 0 -8 4 -15 9 -15 14 0 1 38 -15 44 -8 3 -14 1 -14 -4z"/> <path d="M2050 1679 c0 -5 3 -8 8 -5 4 2 6 -13 4 -35 l-4 -39 58 4 c51 3 59 6 62 25 6 35 30 25 28 -11 -3 -34 -5 -35 -46 -23 -21 7 -23 6 -13 -7 7 -8 9 -18 5 -23 -4 -4 8 -5 26 -2 28 6 38 2 66 -27 38 -37 36 -47 -17 -103 -21 -23 -26 -33 -16 -33 9 0 19 3 23 8 4 4 17 7 29 7 14 0 23 7 25 20 3 11 10 24 18 28 8 4 14 15 14 24 0 12 3 13 13 4 8 -6 16 -8 19 -5 13 12 118 -46 118 -65 0 -3 -14 -6 -32 -6 -26 0 -33 -5 -38 -25 -4 -14 -3 -33 2 -42 7 -14 4 -18 -12 -18 -28 0 -25 -18 6 -43 l26 -20 -23 -13 c-13 -7 -36 -13 -51 -14 -20 0 -28 -5 -28 -17 0 -31 12 -63 21 -57 5 3 6 -1 3 -9 -3 -8 2 -20 11 -27 23 -19 18 -34 -7 -18 -13 8 -35 18 -50 21 -15 4 -30 16 -33 27 -4 12 -15 20 -30 20 -15 0 -22 5 -21 17 0 10 -8 22 -20 27 -11 5 -28 29 -38 53 -10 23 -22 43 -26 43 -16 0 -18 -42 -4 -77 l15 -35 -25 6 c-14 3 -28 1 -31 -5 -4 -6 -13 -8 -21 -5 -8 3 -14 -1 -14 -9 0 -10 9 -12 35 -8 23 4 35 2 35 -6 0 -6 -8 -11 -17 -11 -26 -1 -70 -28 -141 -85 l-61 -50 23 -24 c16 -16 37 -24 61 -25 50 -1 57 20 13 39 l-33 15 35 -2 c28 -3 36 -8 38 -27 2 -13 12 -26 23 -28 10 -3 19 -12 19 -20 0 -10 -6 -13 -17 -8 -11 4 -14 3 -8 -3 14 -13 75 -23 75 -13 0 15 62 32 96 25 20 -4 34 -1 39 6 6 9 -6 11 -46 7 -30 -2 -64 -8 -76 -12 -18 -6 -23 -3 -28 18 -4 14 -15 33 -25 42 -17 15 -16 17 12 45 16 17 27 34 23 40 -3 5 0 7 8 5 9 -4 13 -21 10 -58 -1 -29 -5 -58 -8 -64 -2 -7 -1 -13 4 -13 13 0 38 33 46 60 l8 24 28 -34 c37 -44 50 -31 14 15 -15 20 -25 38 -23 40 2 3 19 0 37 -5 22 -6 40 -6 52 0 25 14 39 12 39 -5 0 -23 32 -34 79 -28 41 6 43 5 39 -18 -2 -17 -11 -25 -27 -27 -13 -2 -31 -11 -40 -19 -14 -15 -16 -14 -22 8 -6 21 -7 21 -9 4 -1 -20 -1 -20 -9 0 -5 11 -6 25 -4 32 3 7 -2 22 -10 33 -13 19 -16 19 -30 6 -19 -19 -12 -48 18 -76 l23 -21 -34 -51 c-19 -27 -34 -62 -34 -78 l0 -27 -48 12 c-27 7 -76 27 -110 44 -48 24 -62 28 -62 16 0 -8 11 -22 24 -31 14 -8 26 -27 28 -42 2 -15 12 -31 25 -38 13 -6 20 -13 17 -16 -3 -3 -1 -9 5 -13 7 -3 11 2 11 14 0 25 13 27 31 5 9 -11 22 -14 43 -10 l31 6 3 -94 c3 -85 0 -100 -22 -144 -14 -27 -37 -63 -51 -81 -15 -17 -23 -31 -18 -31 14 0 63 67 84 117 16 39 20 73 23 193 2 114 6 151 19 175 27 48 40 61 70 69 15 3 27 11 27 16 0 6 11 10 24 10 13 0 26 5 28 12 3 8 16 5 42 -11 l37 -23 24 26 c32 34 84 56 133 56 31 0 48 -9 90 -45 52 -44 102 -65 155 -65 46 0 30 15 -17 16 -48 1 -114 34 -155 78 -19 20 -34 26 -66 26 -44 0 -45 1 -74 73 -9 23 -15 26 -36 21 -16 -4 -25 -2 -25 6 0 6 5 8 10 5 6 -3 10 -1 10 4 0 6 7 11 15 11 8 0 16 7 16 15 2 23 4 29 12 42 14 22 -19 41 -59 34 -43 -7 -52 -22 -29 -45 11 -10 25 -13 46 -9 24 4 28 3 23 -10 -3 -9 -12 -13 -20 -10 -8 3 -14 0 -14 -6 0 -6 -7 -11 -16 -11 -8 0 -12 -5 -9 -11 4 -6 -9 0 -28 13 -28 18 -33 25 -21 31 8 5 12 13 8 18 -3 5 0 16 6 24 19 23 -16 32 -39 11 -11 -10 -21 -13 -25 -8 -3 6 0 13 6 16 7 3 3 3 -9 1 -14 -4 -29 2 -47 20 -29 28 -13 34 32 11 15 -7 47 -16 71 -20 37 -6 48 -3 77 19 19 15 35 21 39 15 3 -5 14 -10 24 -10 10 0 48 -15 84 -33 36 -18 64 -30 61 -26 -2 4 19 -2 47 -14 28 -12 46 -23 40 -25 -5 -2 -23 4 -40 13 -17 8 -31 13 -31 11 0 -11 60 -36 84 -36 14 0 28 -4 31 -10 3 -5 12 -10 18 -10 16 0 -39 46 -83 69 -19 10 -49 22 -67 25 -21 5 -39 19 -53 41 -33 53 -89 61 -137 21 l-28 -24 0 37 c0 30 -4 37 -24 39 -13 2 -28 -1 -34 -7 -16 -16 -30 -14 -24 3 10 26 -63 92 -126 115 -33 11 -67 21 -76 21 -31 0 -69 51 -74 98 -3 31 0 45 9 49 22 8 16 20 -8 18 -12 -1 -24 -7 -26 -13 -6 -18 -43 -14 -58 6 -13 15 -13 14 -4 -10 7 -22 6 -26 -5 -22 -8 3 -16 15 -18 27 -3 18 -5 17 -6 -5 0 -16 4 -28 10 -28 5 0 7 -4 4 -10 -9 -15 -45 -12 -45 4 0 8 5 16 12 18 16 6 2 38 -17 38 -8 0 -15 -5 -15 -11z m250 -207 c-6 -2 -15 -15 -20 -28 -6 -15 -15 -22 -25 -18 -12 5 -9 14 17 47 27 34 34 38 37 22 2 -11 -2 -21 -9 -23z m189 -71 c2 -1 -2 -7 -8 -15 -9 -10 -9 -16 -1 -21 6 -4 9 -14 6 -22 -4 -9 -1 -22 5 -29 21 -25 -17 -16 -50 12 -33 27 -41 47 -16 38 8 -4 15 -1 15 5 0 6 -7 11 -15 11 -16 0 -20 12 -8 24 5 5 44 4 72 -3z m69 -42 c15 -24 8 -55 -14 -63 -24 -9 -34 2 -34 38 0 50 25 63 48 25z m161 -36 c12 -14 20 -28 18 -30 -2 -1 -29 7 -61 20 -60 25 -63 37 -10 37 23 0 38 -8 53 -27z m-552 -123 c5 -32 -5 -39 -11 -8 -4 17 -15 49 -25 68 -4 8 -6 22 -3 30 7 18 32 -39 39 -90z m283 50 c0 -5 -7 -10 -15 -10 -8 0 -15 5 -15 10 0 6 7 10 15 10 8 0 15 -4 15 -10z m165 -10 c-9 -14 -55 -17 -66 -4 -8 9 -5 13 13 16 30 5 59 -2 53 -12z m-215 -22 c16 -10 24 -10 40 0 26 16 40 15 40 -2 0 -8 -14 -17 -32 -21 -32 -7 -80 -45 -58 -45 6 0 8 -5 4 -11 -7 -12 -37 30 -49 69 -5 18 -2 22 14 22 12 0 30 -6 41 -12z m-252 -34 c1 -14 -2 -23 -8 -19 -6 3 -10 0 -10 -9 0 -18 23 -15 47 5 20 17 74 12 80 -8 3 -9 -7 -12 -36 -9 -23 2 -41 -1 -41 -6 0 -5 -14 -7 -30 -4 -25 3 -31 0 -36 -19 -10 -40 -41 -60 -97 -61 -38 -1 -45 1 -27 6 l25 8 -25 2 c-17 2 -20 4 -8 7 9 2 19 12 22 21 3 9 33 30 67 45 42 19 59 32 55 42 -2 7 0 16 7 19 7 2 12 5 12 5 0 1 2 -10 3 -25z m354 -2 c-6 -2 -14 -3 -18 -2 -4 1 -12 -9 -19 -22 -6 -13 -17 -22 -23 -20 -7 1 -12 -4 -12 -11 0 -8 -7 -14 -15 -14 -8 0 -15 7 -15 14 0 8 5 11 12 7 7 -4 8 -3 4 4 -4 7 -2 20 3 29 6 10 11 15 11 11 0 -4 12 -1 26 7 15 7 34 11 42 7 10 -3 12 -7 4 -10z m64 -37 c45 -3 49 -5 52 -30 2 -14 10 -29 18 -32 24 -9 16 -20 -33 -47 -54 -31 -73 -28 -73 12 0 43 36 56 81 30 l34 -21 -29 27 c-34 31 -30 30 -65 11 -25 -12 -31 -12 -47 0 -11 8 -26 14 -34 14 -10 0 -8 -3 5 -9 19 -8 19 -9 -2 -9 -31 -1 -29 24 4 55 18 16 29 21 33 13 4 -6 29 -12 56 -14z m-281 -24 c22 -4 51 -13 64 -20 19 -11 25 -11 32 0 5 8 9 11 9 7 0 -3 3 -14 7 -24 5 -14 3 -16 -11 -11 -10 4 -15 3 -11 -3 13 -21 -13 -9 -27 12 -13 20 -18 21 -41 11 -18 -8 -36 -9 -59 -2 -44 12 -48 12 -49 -8 0 -10 -5 -5 -10 11 -4 17 -6 32 -4 35 3 2 5 0 5 -5 0 -5 15 -10 33 -11 l32 -2 -25 15 c-16 10 -18 13 -5 8 11 -4 38 -10 60 -13z m-111 -17 c10 -25 6 -57 -8 -83 -13 -23 -14 -20 -13 37 2 61 9 77 21 46z m264 -32 c2 -7 -3 -12 -12 -12 -9 0 -16 7 -16 16 0 17 22 14 28 -4z m80 -22 c2 -14 9 -31 14 -37 8 -10 6 -13 -6 -13 -9 0 -16 8 -16 20 0 13 -10 24 -25 30 -34 13 -32 32 3 28 20 -2 28 -9 30 -28z m-193 -48 c-7 -8 -23 42 -17 53 3 5 9 -4 14 -20 4 -16 5 -31 3 -33z m-330 13 c26 -11 28 -14 12 -20 -21 -9 -87 18 -87 36 0 11 21 6 75 -16z m73 17 c7 -5 21 -25 31 -45 15 -29 16 -37 5 -37 -8 0 -14 7 -14 16 0 9 -9 18 -19 21 -10 3 -21 16 -24 29 -4 25 0 29 21 16z m69 -182 c29 -16 62 -30 72 -30 27 0 69 -20 75 -35 8 -21 -54 -28 -75 -9 -11 10 -27 14 -41 11 -28 -8 -48 9 -48 39 0 17 -8 28 -25 34 -14 5 -25 12 -25 15 0 10 14 5 67 -25z"/> <path d="M2430 1393 c8 -3 18 -11 22 -17 5 -7 8 -4 8 7 0 11 -7 17 -22 16 -16 0 -18 -2 -8 -6z"/> <path d="M2294 1643 c-13 -83 -3 -97 99 -141 45 -19 75 -39 88 -58 10 -16 19 -24 19 -18 0 25 -43 63 -97 85 -101 40 -105 44 -98 117 8 73 1 83 -11 15z"/> <path d="M2582 1665 c13 -30 43 -29 44 0 1 15 0 16 -3 3 -6 -24 -24 -23 -30 2 -3 11 -9 20 -14 20 -5 0 -3 -11 3 -25z"/> <path d="M2645 1672 c5 -18 1 -28 -15 -39 -14 -10 -20 -22 -17 -34 7 -26 -9 -34 -22 -12 -10 17 -10 17 -11 1 0 -30 21 -65 47 -77 14 -6 33 -30 44 -56 11 -25 24 -45 29 -45 16 0 -32 85 -64 112 -27 23 -29 29 -19 47 7 11 10 27 7 35 -3 8 3 19 15 26 19 9 21 8 21 -14 0 -14 -4 -28 -10 -31 -5 -3 -15 -16 -21 -28 -8 -18 -5 -16 15 6 14 15 26 35 26 44 0 10 5 13 18 8 35 -15 48 -16 87 -8 27 6 44 17 52 33 12 24 13 24 13 3 0 -12 4 -24 9 -28 6 -3 6 6 1 24 -12 42 -19 51 -38 51 -12 0 -13 -3 -4 -12 7 -7 12 -20 12 -29 0 -14 -6 -11 -29 12 -16 16 -38 29 -48 28 -14 0 -14 -2 -3 -6 8 -3 28 -17 43 -32 l28 -26 -43 -6 c-56 -9 -91 7 -99 46 -4 17 -7 23 -8 15 -1 -13 -2 -13 -12 0 -8 12 -9 10 -4 -8z"/> <path d="M2880 1665 c-13 -14 -21 -27 -18 -30 3 -4 15 6 27 20 11 15 25 25 31 23 6 -2 -5 -18 -24 -37 -26 -25 -45 -34 -77 -36 -23 -2 -45 -7 -48 -12 -6 -8 -33 -22 -88 -45 -18 -7 -33 -16 -33 -19 0 -10 47 -20 64 -13 27 10 39 -6 22 -32 -18 -26 -21 -54 -6 -54 6 0 10 6 10 13 0 24 31 77 51 87 16 9 19 7 19 -12 0 -13 12 -31 25 -41 24 -17 25 -17 25 1 0 10 6 24 12 30 10 10 10 17 0 32 -10 17 -10 20 3 20 15 0 19 11 15 39 -1 7 7 23 17 35 46 52 47 56 21 56 -13 0 -35 -11 -48 -25z m-70 -94 c0 -10 -12 -26 -26 -36 -15 -9 -23 -12 -19 -6 6 11 -11 10 -67 -6 -10 -2 -18 0 -18 6 0 6 6 12 13 12 6 1 18 2 25 3 7 0 16 6 20 12 4 6 15 14 26 17 15 6 17 3 13 -13 -3 -11 -1 -18 4 -14 5 3 9 14 9 25 0 10 5 19 10 19 6 0 10 -8 10 -19z m37 3 c-3 -4 0 -15 7 -26 18 -26 -1 -73 -21 -52 -20 19 -17 84 4 84 9 0 13 -3 10 -6z"/> <path d="M1814 1664 c-19 -15 -19 -16 1 -8 11 4 32 8 47 8 14 1 24 4 21 9 -8 13 -48 8 -69 -9z"/> <path d="M1977 1663 c-2 -5 -3 -15 -2 -24 2 -12 -3 -15 -21 -11 -13 2 -39 -3 -58 -12 -42 -20 -45 -20 -68 1 -14 13 -21 14 -31 4 -9 -9 -7 -13 10 -17 12 -4 27 -18 33 -33 7 -18 9 -20 6 -5 -3 18 2 23 26 28 17 3 35 3 41 -1 5 -3 7 -2 4 3 -3 6 3 11 14 11 13 1 19 -5 19 -18 0 -12 7 -19 18 -18 10 0 12 3 5 6 -16 6 -17 33 -2 33 20 0 38 -27 33 -51 l-5 -24 12 23 c10 18 9 26 -3 40 -8 9 -13 27 -12 40 1 23 -11 39 -19 25z"/> <path d="M1204 1646 c-3 -8 -1 -23 5 -33 9 -15 10 -13 11 15 0 34 -7 42 -16 18z"/> <path d="M1699 1623 c-8 -9 -9 -14 -2 -10 6 4 14 1 16 -5 3 -7 6 -3 6 10 1 26 -2 27 -20 5z"/> <path d="M1660 1601 c0 -5 -20 -14 -45 -20 -25 -6 -45 -15 -45 -21 0 -22 51 -33 83 -17 14 7 18 5 15 -10 -3 -19 -17 -33 -33 -33 -5 0 -3 5 5 10 13 8 13 10 -2 10 -21 0 -34 -19 -16 -24 7 -1 28 -8 46 -14 17 -6 30 -6 26 -1 -3 5 -1 9 4 9 5 0 7 11 5 24 -4 21 -2 24 16 19 23 -6 27 7 11 37 -10 19 -70 45 -70 31z m30 -19 c0 -15 -42 -33 -63 -26 -20 6 -19 8 13 20 43 15 50 16 50 6z m25 -12 c-3 -5 -1 -10 4 -10 6 0 11 -4 11 -9 0 -5 -11 -8 -24 -7 -23 1 -23 2 -9 19 18 19 28 23 18 7z m-25 -66 c0 -8 -4 -14 -9 -14 -6 0 -9 9 -8 19 1 22 17 18 17 -5z"/> <path d="M1917 1569 c-10 -18 -20 -29 -24 -25 -4 3 -15 -2 -26 -11 -18 -17 -19 -17 -30 2 -7 11 -15 29 -18 40 -4 12 -6 3 -7 -23 0 -23 4 -45 9 -48 5 -3 9 -1 9 4 0 11 58 3 66 -9 8 -13 47 -10 67 5 10 8 28 12 40 10 20 -4 20 -4 -2 6 -19 8 -28 7 -44 -7 -20 -18 -20 -17 -14 14 4 18 2 35 -3 38 -5 3 -7 12 -3 20 9 25 -1 16 -20 -16z m23 -18 c0 -6 -4 -12 -10 -16 -5 -3 -7 -12 -3 -20 6 -18 -18 -20 -34 -4 -9 9 -6 16 10 30 25 20 37 24 37 10z"/> <path d="M2100 1560 c-21 -41 -20 -60 3 -60 13 0 37 45 37 69 0 9 -9 -2 -19 -24 -12 -23 -20 -33 -20 -22 -1 10 6 31 14 47 9 17 13 30 10 30 -2 0 -14 -18 -25 -40z"/> <path d="M10 1499 c-12 -8 -10 -9 7 -4 13 4 32 -1 48 -11 14 -9 25 -12 25 -7 0 9 -43 33 -58 33 -4 0 -14 -5 -22 -11z"/> <path d="M1290 1468 c22 -37 27 -118 10 -180 -9 -29 -8 -44 4 -66 17 -33 79 -89 125 -114 31 -17 32 -20 26 -60 -4 -31 -2 -49 9 -63 8 -11 16 -15 16 -8 0 6 -5 15 -10 18 -6 4 -8 26 -4 55 6 48 6 50 -26 67 -61 34 -93 58 -114 86 -19 26 -19 32 -8 111 11 75 10 89 -5 132 -10 26 -24 49 -31 52 -8 2 -5 -9 8 -30z"/> <path d="M161 1443 c1 -34 2 -35 9 -13 10 31 16 6 8 -31 -3 -14 52 -19 68 -7 13 9 28 -47 18 -64 -8 -12 -12 -110 -5 -102 3 3 7 22 8 42 1 20 4 53 6 72 3 19 1 45 -4 58 -6 15 -5 22 4 22 8 0 7 4 -3 10 -10 6 -21 3 -35 -10 -25 -24 -50 -26 -41 -5 6 17 -13 65 -26 65 -4 0 -8 -17 -7 -37z"/> <path d="M1113 1473 c8 -12 105 -38 113 -30 3 2 -15 9 -39 16 -25 6 -52 14 -62 18 -12 4 -16 3 -12 -4z"/> <path d="M997 1432 c-10 -10 -14 -22 -10 -27 5 -4 0 -5 -10 -2 -10 4 -19 2 -21 -6 -2 -6 -8 -27 -14 -45 -6 -17 -6 -30 -1 -26 5 3 9 0 9 -6 0 -6 10 -8 24 -4 22 5 24 3 19 -17 -6 -20 -3 -21 18 -15 13 4 36 10 52 13 15 3 27 10 27 15 0 6 -9 8 -21 5 -26 -7 -59 25 -59 56 0 13 -6 29 -12 37 -11 12 -10 12 3 2 9 -6 19 -9 22 -5 4 3 8 -5 8 -18 2 -46 4 -52 17 -56 14 -5 17 23 3 31 -4 3 -11 24 -15 46 -7 44 -15 49 -39 22z m8 -78 c18 -43 19 -64 4 -64 -6 0 -8 9 -4 20 4 13 2 20 -6 20 -7 0 -9 3 -6 7 4 3 -1 12 -11 19 -14 11 -14 14 -2 14 10 1 9 4 -5 10 -17 7 -17 9 -3 9 11 1 23 -13 33 -35z m-25 -14 c0 -5 -7 -10 -15 -10 -8 0 -15 5 -15 10 0 6 7 10 15 10 8 0 15 -4 15 -10z"/> <path d="M14 1385 c11 -8 36 -15 55 -15 l36 -1 -25 -21 c-14 -11 -38 -31 -55 -44 -39 -30 -26 -40 29 -22 37 12 46 13 50 2 3 -8 -4 -18 -14 -24 -11 -6 -20 -20 -20 -30 0 -28 -20 -25 -48 8 l-23 27 17 -28 c22 -37 54 -49 95 -37 25 7 37 6 49 -5 25 -23 33 -18 11 6 -15 16 -26 19 -50 14 -40 -9 -41 11 -4 54 33 37 47 40 39 8 -4 -19 0 -26 19 -35 17 -8 25 -20 25 -36 0 -15 12 -34 35 -52 32 -25 34 -29 18 -38 -10 -5 -21 -13 -24 -18 -3 -5 -12 -10 -20 -11 -29 -5 -39 -19 -39 -58 0 -53 -15 -79 -45 -79 -30 0 -55 -10 -55 -21 0 -5 10 -5 23 1 12 5 34 11 49 14 14 3 28 14 30 24 3 16 4 16 10 0 4 -10 -1 -27 -13 -42 -11 -14 -16 -26 -10 -26 6 0 11 -5 11 -10 0 -13 -21 -9 -38 8 -19 17 -35 15 -28 -4 3 -9 6 -18 6 -20 0 -3 5 -2 12 2 7 4 8 3 4 -4 -3 -6 3 -16 14 -22 11 -6 20 -7 21 -3 0 4 4 -1 9 -12 7 -17 8 -16 9 10 0 26 5 75 9 98 1 4 12 7 25 8 l22 0 -22 9 c-13 5 -23 14 -23 19 0 5 11 4 25 -2 14 -7 25 -17 25 -23 0 -7 7 -14 15 -18 8 -3 15 -1 15 4 0 6 -4 10 -10 10 -5 0 -10 7 -10 15 0 8 -8 15 -19 15 -23 0 -36 16 -45 53 -5 21 -4 27 5 21 9 -5 10 -2 6 12 -7 18 -6 18 8 -1 18 -23 85 -30 85 -9 0 7 7 20 17 29 14 14 14 18 2 26 -11 7 -11 9 3 9 9 0 20 9 23 21 12 38 -57 81 -72 44 -9 -25 6 -31 23 -9 14 18 15 18 10 -6 -3 -14 -3 -19 0 -12 8 18 24 15 24 -6 0 -11 -8 -18 -20 -19 -11 -1 -20 2 -20 8 0 5 -3 8 -7 7 -5 -1 -17 4 -29 11 -19 12 -20 19 -12 55 5 23 7 51 5 63 -2 12 0 20 4 17 5 -3 9 6 9 20 0 14 -4 26 -10 26 -5 0 -10 -7 -10 -16 0 -8 -5 -12 -11 -8 -7 4 -9 0 -5 -12 11 -37 12 -69 5 -99 l-8 -30 3 33 c1 17 -1 32 -6 32 -5 0 -7 4 -4 8 3 5 -5 8 -17 8 -17 -1 -21 4 -19 21 2 12 -1 24 -6 27 -5 3 -7 17 -4 31 4 24 5 24 18 8 10 -14 17 -16 31 -7 30 19 22 39 -14 36 -18 -2 -33 1 -33 6 0 5 -15 7 -32 5 -27 -3 -29 -1 -13 6 11 5 15 10 8 10 -7 1 -23 -4 -37 -10 -18 -9 -33 -9 -58 0 -30 10 -31 9 -14 -4z m136 -44 c0 -24 -25 -55 -37 -48 -7 4 -5 18 6 41 16 35 31 38 31 7z m-30 10 c0 -17 -53 -61 -74 -61 -18 1 -15 6 19 35 41 35 55 42 55 26z m174 -249 c2 -4 -2 -18 -10 -32 l-15 -25 6 28 c4 19 2 26 -5 22 -5 -3 -10 -13 -10 -21 0 -8 -4 -13 -9 -10 -5 4 -12 0 -14 -6 -3 -7 -6 -3 -6 9 -1 30 49 58 63 35z"/> <path d="M1200 1361 c-5 -11 -19 -23 -30 -26 -11 -3 -20 -14 -20 -24 0 -9 -9 -27 -20 -39 -17 -17 -32 -22 -75 -22 -30 0 -55 -4 -55 -10 0 -22 121 -3 147 23 8 7 15 23 16 35 0 12 3 19 5 17 9 -8 59 34 59 49 0 22 -14 20 -27 -3z"/> <path d="M2680 1252 c0 -16 34 -32 67 -32 17 0 47 -13 71 -31 60 -44 182 -77 182 -50 0 5 -9 7 -20 4 -26 -7 -95 18 -154 56 -28 17 -63 31 -80 31 -16 0 -38 7 -48 17 -10 9 -18 11 -18 5z"/> <path d="M1056 1214 c-11 -8 -14 -14 -7 -14 7 0 9 -4 6 -10 -8 -13 -56 -13 -75 1 -12 8 -11 9 5 5 11 -3 26 -2 32 2 8 5 -1 8 -22 9 -32 1 -34 -1 -29 -27 4 -15 -1 -40 -9 -57 -14 -26 -14 -33 -1 -58 8 -15 12 -37 9 -49 -6 -20 -5 -20 6 -2 9 14 9 24 1 37 -7 10 -8 20 -3 24 13 7 62 -16 55 -26 -3 -5 0 -9 5 -9 15 0 14 27 -1 33 -7 3 -2 6 12 7 24 1 23 2 -7 15 -18 8 -33 19 -33 26 0 7 9 5 25 -5 14 -9 30 -14 34 -11 5 3 8 -13 6 -35 -2 -23 1 -38 6 -34 5 3 9 1 9 -3 0 -5 14 -14 30 -20 25 -9 30 -9 30 3 0 8 -4 15 -10 15 -20 3 -25 4 -37 12 -7 5 -13 13 -13 20 0 6 6 3 13 -7 12 -16 14 -15 35 5 13 11 20 24 17 27 -4 4 -13 -2 -21 -12 -11 -16 -16 -17 -29 -6 -8 7 -13 16 -10 20 3 5 -2 15 -10 23 -20 20 -19 56 2 79 22 24 5 42 -21 22z m-4 -75 c5 -34 5 -34 -30 -12 -52 33 -55 50 -8 45 29 -3 35 -8 38 -33z m-42 -53 c0 -4 -7 -5 -16 -2 -9 3 -22 6 -30 6 -11 0 -11 5 -2 26 l12 25 18 -23 c10 -13 18 -27 18 -32z"/> <path d="M1110 1203 c0 -6 5 -15 11 -19 6 -3 8 -17 4 -31 -4 -16 -2 -22 5 -18 5 3 10 14 10 24 0 19 -29 63 -30 44z"/> <path d="M207 1135 c-4 -8 -1 -17 5 -21 7 -4 8 -3 4 4 -4 7 -2 12 3 12 6 0 11 5 11 10 0 15 -17 12 -23 -5z"/> <path d="M467 1097 c-21 -25 -30 -58 -25 -84 6 -32 32 -20 44 22 l11 40 4 -37 c3 -22 1 -34 -5 -31 -5 4 -7 -3 -4 -14 3 -11 1 -28 -4 -37 -12 -21 -88 -60 -88 -45 0 6 9 13 19 16 11 3 21 13 24 23 3 10 15 20 28 23 23 4 22 4 -3 6 -19 1 -29 -5 -33 -19 -8 -25 -22 -26 -28 -2 -2 10 -7 2 -11 -21 -6 -26 -4 -42 5 -54 8 -9 17 -43 20 -77 l7 -61 -2 60 c-1 33 -6 67 -10 76 -6 13 1 20 28 29 20 6 39 18 43 25 6 10 17 5 46 -21 20 -19 37 -36 37 -37 0 -6 -121 3 -132 9 -6 4 -9 1 -6 -7 2 -8 21 -22 41 -32 43 -22 46 -33 12 -49 -14 -6 -25 -20 -25 -30 0 -17 4 -16 30 9 41 38 117 54 79 16 -9 -9 -1 -40 16 -61 6 -7 55 42 55 55 0 7 7 13 15 13 9 0 20 10 26 23 5 12 30 31 56 41 45 19 45 19 22 32 -15 8 -30 9 -41 3 -33 -18 -46 -10 -53 31 -4 22 -10 40 -14 40 -16 0 -20 -13 -10 -32 5 -10 7 -23 4 -28 -4 -6 -20 17 -37 50 -16 34 -39 66 -49 73 -10 6 -19 18 -19 25 0 7 -7 15 -15 18 -8 4 -15 14 -15 23 0 9 -6 3 -14 -14 -7 -16 -19 -43 -27 -60 l-13 -30 -4 29 c-2 19 4 39 18 58 26 35 23 47 -3 15z m103 -106 c0 -5 6 -14 14 -20 8 -7 18 -26 21 -42 4 -16 12 -29 18 -30 7 -1 1 -5 -13 -9 -22 -7 -23 -8 -4 -9 12 -1 27 6 34 14 11 13 15 13 21 3 5 -7 9 -17 9 -23 0 -5 -5 -3 -10 5 -5 8 -10 10 -10 4 0 -17 12 -25 24 -15 16 13 83 26 71 13 -24 -23 -123 -43 -110 -22 3 6 -3 10 -14 10 -12 0 -21 -7 -21 -15 0 -17 -31 -35 -57 -34 -12 0 -9 4 10 11 15 5 28 16 28 24 1 8 2 22 3 32 1 10 -7 18 -21 20 -35 5 -54 44 -47 96 l7 46 23 -26 c13 -14 24 -29 24 -33z m-15 -136 c0 -13 -73 -11 -87 3 -7 7 3 10 38 9 27 -1 49 -7 49 -12z m74 -62 c1 -14 -7 -24 -20 -28 -36 -12 -43 9 -17 48 19 30 24 33 30 19 4 -9 7 -27 7 -39z m44 29 c-6 -14 -25 -12 -30 4 -2 5 5 10 16 10 11 0 17 -5 14 -14z"/> <path d="M1000 1029 c0 -25 33 -38 55 -23 17 12 17 14 2 14 -9 0 -17 -6 -17 -12 -1 -7 -10 -2 -20 11 -12 14 -20 18 -20 10z"/> <path d="M2655 997 c5 -24 1 -39 -14 -59 -12 -14 -21 -31 -21 -36 0 -14 -9 -19 -51 -27 -31 -6 -37 -4 -42 14 -4 16 -13 21 -37 21 -17 0 -40 5 -52 11 -18 9 -19 8 -13 -10 5 -15 -4 -31 -33 -61 -47 -49 -58 -82 -72 -225 -9 -87 -17 -118 -36 -147 -13 -21 -29 -38 -34 -38 -6 0 -10 -4 -10 -10 0 -19 29 2 54 40 24 36 30 66 50 250 2 19 9 48 15 63 10 26 12 27 27 13 8 -9 20 -16 25 -16 5 0 9 -13 9 -29 0 -17 4 -32 8 -35 5 -3 8 11 7 31 0 27 -6 38 -23 44 -27 10 -29 35 -3 49 31 16 101 13 101 -5 0 -9 12 -21 28 -27 15 -7 28 -13 30 -14 1 -1 -1 -12 -6 -25 -5 -13 -6 -34 -1 -46 7 -19 5 -23 -10 -23 -10 0 -24 7 -31 15 -20 24 -47 18 -70 -15 -12 -16 -18 -30 -14 -30 3 0 1 -6 -5 -14 -10 -11 -8 -16 9 -21 20 -6 20 -8 -10 -38 -44 -44 -73 -87 -61 -87 6 0 11 3 11 8 0 20 95 113 136 132 43 21 47 22 62 6 15 -15 15 -16 1 -11 -9 3 -27 -5 -43 -20 -15 -14 -40 -32 -56 -40 -30 -15 -50 -43 -50 -67 1 -7 7 -1 16 14 8 15 29 35 47 44 17 10 38 25 45 35 23 33 34 20 13 -15 -23 -37 -27 -71 -10 -82 7 -4 9 0 5 13 -9 28 7 64 43 101 27 26 29 31 14 36 -10 3 3 3 29 1 27 -3 61 1 80 9 101 41 227 24 261 -35 10 -18 20 -29 24 -25 3 3 -2 16 -13 28 -19 21 -19 21 1 15 19 -7 19 -6 -1 10 -55 45 -60 131 -14 218 36 68 39 83 7 35 -40 -60 -50 -96 -45 -165 3 -56 2 -65 -12 -59 -35 16 -136 16 -180 0 -61 -22 -62 -22 -67 -10 -2 6 5 14 15 16 11 3 21 18 25 37 4 18 13 31 21 31 9 0 31 25 50 55 20 30 51 65 71 77 37 24 46 42 18 35 -100 -27 -135 -43 -163 -72 l-32 -34 -25 23 c-20 19 -22 26 -14 48 5 15 20 29 31 33 16 5 20 12 16 28 -3 12 -6 32 -6 45 0 13 -6 22 -15 22 -12 0 -15 -7 -10 -33z m160 -114 c-20 -20 -43 -49 -50 -65 -6 -16 -23 -35 -36 -42 -15 -7 -25 -22 -27 -39 -2 -18 -9 -27 -22 -27 -10 0 -20 -6 -23 -13 -3 -8 -26 -13 -68 -13 -42 -1 -53 1 -32 5 26 5 31 9 23 21 -15 24 -12 63 10 105 11 21 18 41 15 43 -2 3 -10 -7 -16 -22 -14 -29 -40 -34 -59 -11 -18 22 -3 34 50 39 32 3 48 -1 63 -15 19 -18 20 -20 3 -73 -13 -40 -15 -60 -7 -73 9 -15 10 -11 11 20 0 76 59 149 146 181 58 22 61 19 19 -21z m-297 -5 c2 -13 -7 -17 -52 -20 -49 -3 -53 -1 -40 13 8 8 14 20 14 26 0 17 74 0 78 -19z m-3 -191 c2 -27 -19 -44 -31 -26 -3 6 -12 8 -20 5 -26 -10 -24 12 3 33 32 26 47 23 48 -12z"/> <path d="M1060 926 c0 -19 4 -37 10 -41 5 -3 7 -12 4 -20 -8 -19 -25 -8 -22 13 4 22 -62 58 -88 48 -18 -7 -17 -8 6 -26 14 -11 30 -20 35 -20 6 0 -3 9 -20 20 -38 25 -9 28 37 4 l31 -16 -24 -19 c-21 -16 -22 -21 -11 -39 11 -19 9 -24 -24 -55 -41 -39 -48 -37 -106 15 -18 17 -35 25 -37 19 -2 -6 2 -16 8 -22 6 -6 11 -21 11 -34 0 -16 6 -23 20 -23 11 0 20 -5 20 -10 0 -6 8 -14 19 -18 17 -6 17 -11 6 -56 -7 -28 -25 -60 -42 -78 l-30 -30 1 38 c1 36 -1 39 -27 42 -16 2 -35 -2 -43 -9 -13 -11 -15 -10 -14 2 4 28 0 39 -15 39 -8 0 -15 -7 -15 -15 0 -8 -9 -20 -20 -27 -11 -7 -20 -18 -20 -25 0 -17 -17 -17 -23 0 -3 8 -10 7 -23 -7 -18 -18 -18 -18 -1 -13 10 4 15 3 12 -2 -3 -6 3 -14 12 -20 24 -14 -2 -14 -28 -1 -11 6 -19 7 -18 3 3 -21 -2 -33 -15 -33 -20 0 -31 -19 -18 -32 8 -8 16 -2 29 20 10 18 22 32 26 32 5 0 6 -4 2 -9 -3 -5 0 -13 6 -17 8 -4 9 -3 5 4 -10 16 5 15 27 -2 20 -16 23 -28 3 -20 -23 9 -46 -23 -39 -57 4 -24 3 -28 -10 -23 -9 3 -13 12 -10 20 3 8 0 14 -6 14 -6 0 -11 6 -11 13 0 8 -7 14 -15 14 -20 0 -19 -10 4 -26 11 -8 17 -19 15 -25 -7 -19 64 -40 81 -26 17 14 21 55 5 45 -5 -3 -10 0 -10 8 0 29 15 27 41 -4 l26 -32 -29 -74 c-15 -41 -40 -90 -55 -109 -14 -19 -32 -56 -39 -82 -7 -26 -15 -56 -19 -67 -10 -25 38 38 63 85 11 19 23 49 26 65 5 19 21 40 47 57 33 24 39 33 39 64 0 20 -9 49 -21 65 l-21 30 25 -6 c16 -4 30 -1 41 10 20 20 20 26 0 51 -14 18 -15 18 -4 -4 10 -20 9 -24 -9 -29 -12 -3 -21 -9 -21 -13 0 -16 -39 3 -54 26 -16 23 -15 23 22 30 20 4 42 11 48 15 6 5 18 7 26 4 37 -14 128 124 128 194 0 9 13 30 30 46 37 35 107 46 126 20 17 -23 32 -11 26 21 -4 25 -3 26 22 22 14 -3 26 -1 26 3 0 5 -13 9 -29 9 -16 0 -32 6 -34 13 -3 6 -3 -6 -1 -28 2 -22 1 -31 -2 -20 -4 11 -10 25 -15 31 -5 6 -7 18 -3 27 8 21 41 28 55 11 6 -8 18 -14 26 -14 12 0 14 -7 10 -30 -5 -23 -3 -30 9 -30 9 0 14 6 11 13 -3 7 1 21 9 32 11 15 11 21 1 28 -9 6 -8 7 3 4 8 -2 14 -11 12 -20 -1 -8 2 -18 8 -22 18 -11 11 -41 -15 -65 -28 -27 -35 -52 -7 -27 27 24 46 22 32 -3 -6 -11 -17 -20 -25 -20 -7 0 -16 -4 -19 -9 -4 -5 3 -7 14 -4 16 4 19 2 13 -12 -4 -13 -3 -16 5 -11 7 4 12 16 12 27 0 18 2 19 36 4 20 -8 46 -15 58 -14 11 0 17 2 11 4 -79 23 -95 29 -95 36 0 5 8 8 18 7 40 -3 67 2 53 11 -11 7 -11 13 -1 32 7 13 19 28 26 32 8 4 14 13 14 19 0 6 -11 1 -26 -12 -21 -21 -27 -22 -34 -10 -15 24 -12 33 10 27 11 -3 23 -1 26 4 3 5 -4 9 -15 9 -10 0 -27 3 -36 7 -14 5 -16 2 -11 -13 4 -15 1 -20 -13 -20 -11 0 -19 7 -19 16 1 8 -1 21 -3 28 -5 17 27 40 38 28 4 -4 0 -12 -10 -17 -9 -6 -17 -15 -17 -22 1 -12 50 38 50 51 0 4 -11 8 -25 8 -14 1 -25 -2 -25 -8 0 -5 -5 -6 -10 -3 -22 14 -48 -5 -46 -34 2 -26 0 -28 -18 -17 -11 6 -26 17 -34 24 -16 15 -39 16 -47 2 -9 -14 -27 -12 -23 3 3 6 18 14 34 17 43 8 41 44 -3 48 -26 3 -33 -1 -33 -14 0 -14 3 -14 15 -4 9 7 18 10 22 6 3 -3 0 -6 -8 -7 -8 0 -6 -4 6 -9 19 -8 18 -9 -4 -9 -13 -1 -30 -9 -37 -18 -11 -16 -13 -15 -20 11 -5 19 -2 31 7 37 11 7 10 9 -3 9 -14 0 -18 -8 -18 -34z m40 -88 c0 -5 0 -11 0 -15 0 -11 -50 -23 -50 -13 0 5 -2 15 -6 23 -4 11 3 14 25 13 17 -1 31 -4 31 -8z m200 -20 c0 -9 4 -8 10 2 8 12 10 10 10 -8 0 -13 4 -20 10 -17 6 3 10 1 10 -4 0 -16 -26 -13 -44 5 -18 18 -21 34 -6 34 6 0 10 -6 10 -12z m-340 -100 c0 -14 -38 -9 -44 7 -3 8 -12 15 -21 15 -8 0 -15 9 -15 19 0 18 3 18 40 -6 22 -15 40 -30 40 -35z m359 53 c8 -5 9 -11 3 -15 -13 -8 -42 3 -42 15 0 11 21 11 39 0z m-546 -159 c-4 -9 -13 -28 -20 -42 -7 -14 -13 -34 -13 -44 0 -20 0 -20 -15 0 -20 27 -19 36 13 76 27 36 47 42 35 10z m56 -19 c1 9 6 17 12 17 6 0 8 -7 5 -16 -3 -8 -2 -12 4 -9 16 10 11 -21 -5 -35 -9 -8 -15 -8 -15 -2 0 6 6 13 13 15 9 4 9 6 -1 6 -8 1 -16 -8 -19 -18 -3 -13 -16 -20 -39 -23 -19 -2 -34 -1 -34 2 0 10 32 54 49 68 13 10 17 10 23 -5 6 -17 7 -17 7 0z m-123 -129 c-3 -9 -6 -27 -6 -40 0 -14 -4 -22 -10 -19 -11 7 -14 58 -3 68 12 13 25 7 19 -9z m94 -106 c0 -29 -32 -78 -51 -78 -4 0 2 27 14 59 23 63 37 70 37 19z m-119 -195 c-24 -45 -27 -37 -6 14 8 20 18 34 21 30 3 -3 -4 -22 -15 -44z"/> <path d="M70 860 c6 -11 18 -20 27 -20 14 0 14 2 -3 16 -10 8 -13 12 -5 8 9 -5 12 -3 7 4 -4 7 -14 12 -22 12 -12 0 -12 -4 -4 -20z"/> <path d="M205 871 c3 -5 -1 -12 -7 -14 -7 -3 -3 -6 10 -6 25 -1 30 14 6 23 -8 3 -13 2 -9 -3z"/> <path d="M1840 866 c0 -8 -6 -17 -12 -19 -10 -4 -10 -6 -1 -6 6 -1 15 4 18 9 11 18 47 12 43 -7 -2 -12 -13 -18 -33 -18 -17 -1 -29 -5 -27 -10 2 -6 14 -9 28 -8 22 2 24 0 12 -14 -11 -13 -28 -15 -106 -10 -65 5 -91 3 -86 -4 3 -6 17 -9 30 -6 20 3 22 2 13 -9 -12 -14 2 -20 15 -7 12 13 119 16 111 3 -4 -6 -23 -9 -46 -6 -21 2 -39 0 -39 -5 0 -5 4 -9 10 -9 5 0 7 -7 3 -16 -3 -10 -13 -14 -25 -11 -11 3 -21 0 -24 -7 -3 -8 -15 -11 -30 -8 -18 3 -22 8 -15 15 6 6 11 17 11 25 0 11 -3 12 -14 3 -12 -10 -13 -8 -9 8 4 15 1 21 -10 21 -13 0 -15 -8 -10 -37 4 -23 3 -34 -4 -30 -6 4 -10 24 -10 44 1 32 -2 38 -19 35 -13 -1 -10 3 10 14 20 11 42 14 70 10 31 -4 35 -3 19 4 -31 13 -122 8 -127 -7 -3 -6 4 -19 15 -29 25 -23 25 -47 0 -39 -11 3 -23 0 -27 -6 -5 -9 -2 -10 10 -6 10 4 15 3 11 -3 -3 -6 -17 -7 -31 -4 -14 4 -24 2 -24 -5 0 -15 57 -14 62 1 5 15 25 3 39 -24 8 -16 8 -19 -1 -13 -10 6 -11 -5 -6 -48 5 -36 3 -64 -4 -77 -12 -22 -77 -56 -88 -46 -13 14 -10 92 5 108 9 10 11 18 5 18 -6 0 -17 -9 -24 -19 -8 -11 -27 -21 -43 -23 -22 -2 -31 -9 -33 -24 -2 -12 -15 -27 -29 -33 -14 -6 -23 -14 -21 -17 3 -2 17 1 32 7 17 8 26 20 26 36 0 18 5 23 25 23 33 0 39 -17 30 -85 -5 -44 -10 -55 -24 -55 -10 0 -24 -7 -31 -15 -7 -8 -16 -12 -21 -9 -5 3 -6 -3 -3 -13 5 -16 4 -16 -10 2 -14 17 -14 20 -1 28 32 17 17 51 -33 75 -57 27 -85 44 -94 57 -5 6 -8 5 -8 -3 0 -7 11 -17 24 -21 23 -9 36 -29 36 -56 0 -11 -8 -11 -44 1 -61 21 -86 16 -75 -13 6 -17 16 -23 37 -23 16 0 42 -10 58 -22 15 -12 34 -23 42 -24 32 -5 22 -14 -15 -14 -42 0 -65 -17 -77 -57 -4 -13 -12 -23 -17 -23 -5 0 -9 -4 -9 -10 0 -19 23 -10 61 25 22 19 36 35 32 35 -4 0 -20 -12 -36 -27 l-29 -28 7 25 c4 14 12 31 17 38 14 17 80 15 104 -3 22 -17 15 -19 -21 -5 -17 7 -24 7 -20 0 3 -6 11 -10 18 -10 6 0 29 -19 50 -42 36 -40 37 -41 12 -6 -21 29 -24 41 -16 55 10 17 10 16 11 -3 0 -12 14 -39 31 -60 39 -49 68 -111 69 -146 0 -15 -8 -42 -19 -60 -10 -18 -21 -46 -25 -63 -4 -23 1 -18 19 20 19 39 24 43 20 20 -3 -16 -8 -38 -11 -47 -9 -29 14 -20 31 11 18 35 65 71 93 71 11 0 26 9 33 20 12 19 18 20 47 9 25 -8 36 -8 47 1 28 23 16 37 -42 49 -66 12 -115 3 -157 -30 l-26 -20 0 23 c-1 33 -37 108 -67 140 -27 28 -26 51 1 29 8 -7 24 -10 34 -7 11 4 24 0 32 -9 7 -8 27 -15 45 -15 17 0 53 -11 78 -24 25 -14 47 -22 50 -20 2 3 7 -9 10 -26 4 -16 11 -30 16 -30 5 0 2 18 -6 40 -14 34 -14 48 -4 88 7 26 15 57 18 69 3 14 -4 37 -18 60 -13 21 -24 42 -24 46 0 14 -37 37 -58 37 -15 0 -18 5 -13 23 3 12 6 40 6 61 l0 39 29 -41 c32 -43 51 -59 51 -43 0 6 -9 16 -20 23 -11 7 -20 18 -20 25 0 7 -4 13 -10 13 -5 0 -10 7 -10 15 0 13 4 14 20 5 23 -13 51 -61 48 -87 0 -10 0 -31 0 -48 l2 -30 19 30 c10 17 30 40 45 52 27 24 33 54 17 97 -7 18 -6 28 5 36 7 7 14 17 14 23 0 5 -9 0 -20 -13 -12 -13 -19 -29 -16 -34 18 -44 18 -46 0 -46 -18 0 -74 47 -74 62 0 4 11 8 24 8 17 0 26 7 30 24 4 18 11 22 30 19 16 -3 28 2 39 17 12 17 15 18 20 5 4 -8 14 -15 23 -15 13 0 12 4 -6 18 -19 15 -20 19 -7 30 12 10 17 8 30 -12 9 -14 18 -31 19 -38 4 -20 39 -37 78 -38 47 0 56 -8 64 -52 4 -21 12 -40 18 -44 8 -5 9 -1 3 12 -4 10 -10 30 -12 44 -7 35 -30 50 -77 51 -37 1 -38 2 -16 10 23 8 22 8 -7 5 -30 -2 -31 -1 -19 13 8 9 14 31 14 49 -1 25 -6 34 -25 38 -12 4 -23 11 -23 16 0 5 -6 8 -12 6 -7 -3 -19 1 -26 9 -18 17 -52 17 -52 -1z m120 -42 c0 -2 -12 -4 -26 -4 -14 0 -23 4 -20 9 6 8 46 4 46 -5z m-10 -24 c8 -5 11 -10 5 -10 -5 0 -3 -5 5 -10 8 -5 10 -10 4 -10 -7 0 -22 9 -35 20 -17 13 -19 19 -9 20 8 0 22 -5 30 -10z m-206 -150 c20 -22 45 -40 56 -40 29 0 25 -14 -15 -44 l-35 -27 0 23 c0 13 -7 35 -14 51 -11 20 -12 27 -3 28 11 1 -1 7 -50 24 -30 10 -29 25 1 25 15 0 37 -15 60 -40z m-89 -140 c4 -6 15 -8 25 -5 10 3 21 1 25 -4 4 -7 -1 -8 -12 -4 -12 4 -8 -5 13 -28 42 -45 47 -67 29 -119 -8 -23 -15 -54 -15 -67 0 -22 -2 -24 -15 -13 -8 7 -15 10 -15 6 0 -4 -13 0 -30 9 -16 8 -44 15 -63 15 -19 0 -40 7 -48 16 -7 9 -21 13 -35 10 -31 -8 -52 19 -25 33 43 23 114 2 169 -51 17 -18 32 -27 32 -22 0 16 -52 62 -86 76 -27 11 -30 16 -23 36 9 23 47 30 65 12 11 -11 74 15 74 31 0 12 -27 12 -35 -1 -3 -5 -29 -8 -58 -6 -29 2 -64 5 -79 5 -23 1 -28 6 -28 26 0 20 5 25 28 26 15 1 32 1 38 0 6 -1 17 6 24 14 14 17 36 20 45 5z m-341 -36 c46 -16 116 -73 116 -96 0 -7 -4 -7 -13 1 -8 6 -18 7 -22 3 -5 -4 -5 -1 -1 6 5 8 -4 17 -27 27 -18 7 -39 21 -47 29 -7 9 -28 16 -46 16 -24 0 -34 5 -34 15 0 19 15 19 74 -1z m101 -10 c1 -11 -5 -21 -12 -21 -7 0 -13 7 -13 14 0 8 -4 11 -10 8 -6 -3 -7 1 -4 10 9 22 37 14 39 -11z m157 -40 c3 -3 4 -14 1 -25 -4 -14 -14 -19 -42 -19 -20 0 -46 -7 -58 -15 -19 -13 -22 -13 -27 1 -7 18 8 50 26 57 18 7 93 8 100 1z m205 -267 c4 -5 1 -12 -7 -17 -13 -9 -30 -7 -67 7 -6 3 -20 -5 -30 -16 -9 -12 -27 -21 -38 -21 -22 -1 -65 -35 -84 -66 -9 -15 -10 -10 -5 26 8 53 18 68 59 87 31 14 157 14 172 0z"/> <path d="M124 829 c0 -10 4 -19 9 -19 4 0 12 0 17 0 17 0 11 19 -9 29 -15 8 -18 7 -17 -10z"/> <path d="M1403 803 c-10 -16 -22 -32 -28 -36 -6 -5 -5 -7 3 -5 13 3 59 68 48 68 -3 0 -13 -12 -23 -27z"/> <path d="M1750 800 c-11 -8 -7 -9 15 -4 37 8 45 14 19 14 -10 0 -26 -5 -34 -10z"/> <path d="M2070 800 c0 -5 -7 -10 -15 -10 -9 0 -15 -9 -15 -24 0 -13 -6 -27 -12 -29 -7 -3 2 -6 20 -6 18 -1 41 -10 52 -21 11 -11 20 -15 20 -10 0 6 5 10 10 10 6 0 10 -6 10 -14 0 -14 34 -28 44 -18 3 3 1 11 -5 19 -9 10 -7 13 6 13 13 0 16 -6 13 -24 -4 -17 -1 -23 9 -19 16 6 16 6 1 38 -13 28 -19 30 -36 13 -10 -10 -15 -10 -21 1 -5 8 -16 11 -26 7 -22 -8 -55 10 -56 32 0 14 -2 14 -9 -3 -8 -19 -9 -19 -9 3 -1 12 5 22 13 22 8 0 16 7 20 15 3 8 1 15 -4 15 -6 0 -10 -4 -10 -10z"/> <path d="M1395 730 c-3 -5 -4 -14 -1 -19 6 -8 -47 -88 -68 -104 -6 -5 0 -5 14 -2 29 8 48 30 57 65 4 14 13 30 21 36 8 6 12 16 8 22 -9 15 -23 15 -31 2z"/> <path d="M1003 708 c-11 -13 -34 -53 -51 -89 -16 -36 -40 -73 -53 -83 -13 -9 -19 -16 -13 -16 23 0 61 48 79 98 10 28 28 63 40 78 21 27 21 27 87 14 47 -8 72 -9 85 -2 15 9 12 11 -17 9 -19 -1 -58 2 -85 6 -45 7 -53 6 -72 -15z"/> <path d="M2122 667 c-18 -21 1 -30 24 -11 10 9 14 13 7 10 -6 -4 -13 -1 -15 5 -2 7 -8 6 -16 -4z"/> <path d="M2675 651 c-47 -14 -65 -25 -82 -51 -27 -38 -28 -49 -10 -74 12 -16 13 -14 9 18 -6 53 17 82 71 90 24 4 53 13 63 21 22 17 25 17 -51 -4z"/> <path d="M2171 648 c0 -10 -6 -17 -12 -15 -6 1 -14 -4 -16 -10 -5 -15 6 -17 25 -4 8 5 12 17 9 27 -4 17 -5 17 -6 2z"/> <path d="M242 625 c-12 -15 -30 -25 -45 -25 -14 0 -28 -3 -31 -8 -2 -4 13 -6 34 -4 28 3 41 10 45 23 9 27 42 24 69 -6 13 -14 28 -25 35 -25 16 0 14 -42 -3 -66 -13 -16 -18 -17 -35 -7 -17 11 -23 10 -41 -9 -11 -12 -20 -27 -20 -34 0 -9 -8 -10 -28 -5 -15 5 -37 4 -50 0 -28 -11 -29 3 -2 46 l20 32 -30 28 c-16 16 -32 26 -36 23 -3 -4 4 -11 15 -18 26 -13 26 -25 1 -50 -20 -20 -34 -13 -24 14 8 21 -3 66 -16 66 -6 0 -10 -10 -10 -22 0 -20 -5 -17 -45 22 -25 24 -45 39 -45 32 0 -6 12 -19 26 -28 34 -23 83 -96 90 -136 l7 -33 -34 36 c-19 20 -42 53 -51 73 -10 20 -22 36 -28 36 -13 0 28 -69 62 -103 40 -41 34 -55 -7 -18 -20 17 -43 31 -53 31 -10 0 -6 -6 13 -15 49 -25 94 -83 93 -119 -1 -17 4 -41 10 -53 19 -36 25 -127 12 -182 -9 -39 -19 -55 -39 -65 -30 -16 -69 -56 -54 -56 5 0 20 11 33 25 27 29 42 25 15 -5 -10 -11 -13 -20 -7 -20 6 0 18 13 26 28 37 72 164 70 261 -4 20 -15 38 -25 40 -22 6 6 -51 45 -104 73 -26 13 -51 16 -103 13 -59 -3 -68 -1 -62 12 17 37 16 139 -1 190 -11 34 -14 55 -7 62 6 6 12 1 16 -16 5 -19 13 -26 31 -26 18 0 28 -7 35 -24 5 -14 25 -32 44 -41 35 -17 83 -64 104 -102 21 -37 23 -2 3 64 -14 47 -32 81 -54 104 l-33 34 22 24 c25 27 54 23 77 -13 12 -18 24 -23 50 -21 19 1 40 5 46 9 21 13 0 27 -33 21 -23 -5 -38 -1 -58 14 -14 12 -31 21 -37 21 -13 0 -91 48 -91 56 0 3 5 14 11 25 8 16 17 18 43 13 39 -7 43 -2 55 61 7 39 6 45 -6 41 -9 -4 -30 7 -49 24 -42 36 -47 37 -72 5z m-103 -176 c-6 -23 -7 -44 -4 -47 3 -3 5 2 5 12 0 42 84 45 149 5 l34 -20 -21 -22 c-21 -21 -22 -21 -73 -3 -39 14 -56 16 -74 8 -20 -9 -24 -8 -29 11 -7 27 4 97 14 97 4 0 4 -19 -1 -41z m111 -96 c49 -30 80 -67 100 -120 11 -30 20 -56 20 -58 0 -3 -18 13 -40 35 -22 22 -50 42 -64 46 -15 3 -27 15 -30 30 -5 17 -16 26 -37 31 -33 6 -56 42 -35 55 14 9 54 0 86 -19z"/> <path d="M1290 620 c0 -5 16 -27 36 -48 20 -20 32 -30 28 -22 -4 8 -16 21 -26 28 -10 7 -18 19 -18 27 0 8 -4 17 -10 20 -5 3 -10 1 -10 -5z"/> <path d="M481 592 c0 -13 -12 -39 -25 -59 l-25 -35 35 -65 c50 -94 47 -136 -11 -204 -45 -53 -65 -99 -65 -151 0 -47 15 -31 18 19 3 49 40 126 65 136 8 3 21 21 31 40 20 44 9 111 -29 169 -30 46 -31 58 -4 92 13 16 19 36 16 53 -3 24 -4 24 -6 5z"/> <path d="M1546 582 c-3 -6 -2 -13 4 -17 5 -3 11 -16 11 -28 1 -14 3 -16 6 -6 5 21 -12 65 -21 51z"/> <path d="M1990 560 c0 -21 -15 -52 -38 -82 -8 -9 -11 -22 -7 -27 3 -6 3 -21 0 -32 -7 -21 -7 -21 -31 2 -21 20 -26 21 -34 9 -5 -8 -8 -19 -6 -25 1 -5 -3 -14 -11 -20 -10 -8 -6 -10 14 -11 16 -1 44 -8 63 -16 l35 -15 -55 0 c-31 -1 -58 4 -62 11 -6 8 -8 8 -8 -1 0 -6 5 -15 10 -18 21 -13 10 -45 -21 -60 -31 -17 -35 -41 -5 -39 20 2 20 -5 1 -26 -13 -15 -14 -19 -1 -29 10 -8 16 -9 21 -1 3 5 -1 10 -10 10 -13 0 -12 5 6 30 22 30 20 55 -3 32 -17 -17 -33 -15 -18 3 7 8 19 15 26 15 8 0 17 13 20 29 6 26 9 28 49 27 31 -1 41 -5 37 -14 -3 -9 -14 -12 -34 -8 -18 3 -27 2 -23 -4 9 -15 52 -12 68 5 11 10 17 11 19 3 6 -17 28 0 28 23 0 10 5 19 11 19 5 0 7 -4 4 -10 -9 -14 -6 -13 48 14 51 26 113 93 123 132 7 26 -17 71 -42 81 -27 10 -88 -15 -106 -44 l-17 -28 -1 32 c0 22 -6 36 -19 43 -27 14 -31 13 -31 -10z m34 -109 c-4 -53 -10 -99 -13 -104 -4 -4 -16 0 -27 9 -18 14 -18 15 6 4 21 -9 22 -9 8 2 -9 7 -24 18 -34 23 -13 9 -15 15 -6 31 7 13 7 25 1 37 -7 11 -7 17 0 17 12 0 41 57 41 83 0 16 3 17 15 7 13 -10 14 -30 9 -109z m159 77 c20 -27 20 -29 4 -63 -18 -39 -37 -46 -37 -15 0 11 7 20 15 20 8 0 15 9 15 20 0 11 -5 20 -11 20 -6 0 -8 7 -4 18 5 13 4 14 -6 5 -10 -10 -9 -16 1 -28 11 -13 10 -18 -8 -31 -16 -11 -20 -22 -16 -39 5 -20 1 -25 -23 -31 -15 -4 -38 -16 -50 -27 -32 -28 -37 -17 -23 45 15 61 32 99 54 117 14 12 16 10 16 -12 0 -14 5 -29 11 -33 9 -5 10 1 5 20 -13 53 22 61 57 14z m-278 -116 c-3 -3 0 -11 6 -19 14 -16 -3 -17 -19 -1 -16 16 -15 25 3 25 8 0 13 -3 10 -5z"/> <path d="M2742 561 c-11 -6 -11 -17 -1 -57 7 -27 18 -61 25 -75 17 -34 90 -99 112 -99 11 0 5 -8 -18 -21 -47 -29 -86 -74 -113 -131 -12 -27 -28 -48 -35 -48 -10 0 -10 5 -2 21 9 15 8 24 -1 35 -13 15 -20 76 -22 187 -1 37 -6 67 -11 67 -6 0 2 13 17 28 38 40 34 52 -5 15 -44 -41 -65 -51 -129 -59 -30 -3 -63 -12 -74 -19 -24 -15 -61 -94 -70 -147 -5 -31 -11 -39 -33 -44 -53 -12 -60 -15 -67 -31 -5 -15 -4 -15 13 0 10 9 28 17 40 17 30 0 62 34 62 65 0 68 56 145 105 145 18 0 54 7 81 15 27 8 50 15 51 15 1 0 -11 -29 -28 -65 -16 -36 -29 -82 -29 -104 0 -31 -4 -40 -22 -44 -32 -9 -48 10 -48 54 0 27 -4 39 -14 39 -8 0 -16 7 -20 15 -6 17 -32 20 -41 5 -3 -6 5 -14 18 -19 26 -10 37 -29 37 -64 0 -11 7 -28 15 -37 8 -9 16 -34 18 -56 2 -33 -1 -39 -20 -42 -14 -2 -26 4 -33 17 -15 28 -39 26 -78 -8 -26 -23 -30 -30 -18 -34 10 -4 16 -19 16 -40 0 -19 6 -39 13 -45 14 -12 88 -12 81 0 -3 5 -21 6 -39 2 -37 -7 -35 -9 -49 73 -5 27 -1 36 21 50 25 16 26 16 43 -5 20 -24 49 -29 67 -11 8 8 16 4 28 -15 16 -24 50 -43 68 -38 4 1 3 -7 -3 -18 -12 -23 -25 -27 -17 -6 4 10 0 12 -14 9 -16 -5 -17 -8 -7 -21 11 -13 10 -14 -10 -3 -24 13 -42 8 -42 -12 0 -7 15 -12 37 -12 29 0 41 5 51 23 17 29 30 28 42 -3 13 -34 15 -32 15 15 0 43 -3 47 -25 28 -8 -7 -6 -3 4 10 21 25 16 28 -14 10 -31 -20 -70 8 -94 65 -21 51 -21 51 11 61 18 6 25 1 42 -33 23 -43 74 -86 92 -75 6 3 17 20 25 38 10 23 13 26 14 11 0 -11 -9 -33 -20 -50 -20 -30 -27 -89 -12 -99 5 -3 6 9 4 26 -3 19 3 44 18 70 14 24 20 48 16 62 -4 17 4 36 29 68 47 63 90 86 151 83 40 -2 42 -1 9 3 l-40 5 40 12 c47 14 52 37 10 45 -43 9 -73 27 -91 55 -9 14 -24 25 -33 25 -25 0 -41 20 -41 51 0 15 -7 35 -16 43 -18 18 -24 19 -42 7z m38 -20 c5 -11 10 -30 10 -43 0 -28 17 -48 41 -48 10 0 25 -10 33 -21 18 -27 71 -59 95 -59 38 0 29 -14 -16 -26 -56 -14 -91 -3 -138 46 -26 28 -70 152 -57 164 10 11 21 6 32 -13z m-113 -158 c-3 -15 1 -50 9 -78 7 -29 10 -62 7 -74 -3 -13 1 -29 12 -40 13 -15 14 -24 6 -39 -6 -11 -7 -23 -3 -27 4 -4 -3 -1 -16 6 -21 13 -52 65 -52 89 0 6 -4 9 -8 6 -13 -8 4 94 23 142 19 48 30 55 22 15z"/> <path d="M2965 510 c-7 -11 20 -60 31 -60 4 0 -1 11 -10 25 -15 22 -15 25 2 34 16 10 16 10 0 11 -9 0 -20 -5 -23 -10z"/> <path d="M25 436 c40 -17 50 -32 65 -94 6 -28 16 -55 21 -58 11 -7 11 -1 0 28 -5 13 -14 42 -20 65 -11 42 -48 74 -83 73 -7 -1 1 -7 17 -14z"/> <path d="M1018 430 c-15 -4 -44 -26 -66 -49 -21 -23 -46 -41 -54 -41 -9 0 -21 -7 -28 -15 -22 -27 62 13 88 41 l22 26 44 -29 c37 -25 42 -32 35 -52 -12 -30 0 -97 18 -113 13 -10 12 -13 -4 -19 -13 -6 -10 -8 15 -8 34 -1 78 32 66 50 -7 12 -44 -22 -37 -34 3 -5 -5 -3 -18 4 -21 11 -22 13 -6 18 22 8 77 87 77 111 0 10 7 23 15 30 8 7 15 21 15 30 0 10 6 21 13 23 6 3 -16 3 -50 0 -40 -3 -63 -1 -63 6 0 16 45 24 88 17 27 -5 33 -4 22 3 -34 24 -120 6 -120 -23 0 -11 -8 -12 -35 -6 -20 4 -35 4 -35 -1 0 -5 13 -9 29 -9 21 0 30 -6 34 -21 5 -18 2 -20 -20 -14 -14 3 -32 13 -40 20 -8 8 -19 15 -24 15 -22 0 -6 19 21 25 17 4 30 11 30 16 0 5 -1 9 -2 8 -2 0 -15 -4 -30 -9z m152 -40 c-12 -8 -12 -10 2 -15 15 -6 15 -8 -3 -26 -10 -10 -16 -25 -13 -32 3 -8 -2 -17 -10 -20 -9 -4 -16 -12 -16 -20 0 -7 -13 -26 -29 -41 l-28 -27 -6 42 c-8 60 7 85 60 98 41 11 52 31 15 31 -15 0 -15 -2 -2 -11 12 -9 12 -10 -3 -5 -10 3 -25 6 -33 6 -31 0 -12 19 24 23 20 2 42 4 47 5 6 1 3 -2 -5 -8z"/> <path d="M2165 368 c46 -25 59 -65 23 -70 -15 -2 -22 -9 -21 -21 1 -19 1 -19 -108 -5 -9 1 -15 8 -12 14 2 7 0 15 -6 19 -6 3 -11 -2 -11 -13 0 -21 36 -51 111 -95 70 -40 96 -109 65 -170 -8 -15 -11 -27 -7 -27 17 0 33 61 28 101 -6 48 -32 78 -102 120 -39 24 -44 29 -21 24 59 -13 116 24 116 74 0 26 -34 61 -57 61 -16 -1 -15 -2 2 -12z"/> <path d="M972 349 c-6 -14 -8 -37 -5 -52 6 -32 -10 -36 -46 -11 -17 12 -26 13 -34 5 -8 -8 -6 -11 9 -11 12 0 38 -16 60 -35 l39 -34 -27 -1 c-18 0 -28 -5 -28 -15 0 -8 -4 -15 -10 -15 -5 0 -10 -7 -10 -15 0 -9 6 -12 15 -9 8 4 15 1 15 -6 0 -8 10 -11 29 -7 21 5 31 2 35 -10 4 -10 15 -14 31 -11 17 4 31 -2 47 -19 13 -14 31 -29 41 -34 16 -9 17 -7 11 18 -7 28 -47 73 -65 73 -6 0 4 -13 22 -30 18 -16 30 -33 26 -37 -4 -3 -23 9 -43 28 -26 26 -34 39 -29 57 6 25 -21 92 -42 105 -7 5 -11 12 -8 17 3 4 -1 23 -9 41 l-14 34 -10 -26z m23 -48 c-3 -5 -1 -12 4 -16 19 -11 42 -68 32 -78 -12 -12 -37 6 -53 37 -10 20 -9 20 14 -1 33 -31 43 -29 13 2 -18 17 -25 35 -25 62 1 31 3 35 11 20 5 -9 8 -21 4 -26z m24 -110 c10 -7 8 -12 -10 -25 -28 -19 -41 -20 -56 -5 -28 28 28 54 66 30z"/> <path d="M686 318 c-9 -12 -16 -33 -16 -46 0 -13 -16 -49 -35 -80 -44 -74 -63 -142 -47 -174 11 -21 11 -20 6 12 -6 43 15 105 56 164 17 26 30 58 30 75 0 16 7 37 16 46 9 9 14 18 11 21 -3 3 -12 -5 -21 -18z"/> <path d="M2011 283 c-1 -6 -10 -9 -21 -6 -41 11 -66 -62 -35 -103 8 -10 15 -27 15 -37 0 -14 -4 -16 -18 -8 -13 7 -22 7 -29 0 -6 -6 -8 1 -5 21 4 31 -6 38 -26 18 -9 -9 -12 -6 -12 15 0 15 -5 27 -11 27 -6 0 -8 -7 -5 -16 3 -9 6 -22 6 -30 0 -11 6 -13 20 -9 18 6 20 3 15 -18 -6 -23 -4 -24 34 -23 23 0 41 5 41 10 0 6 5 5 12 -2 18 -18 36 -14 52 11 14 21 13 29 -9 92 -13 39 -24 65 -24 58z m-10 -64 c3 -24 9 -52 14 -61 5 -13 3 -18 -9 -18 -8 0 -25 19 -37 41 -17 34 -19 46 -10 66 16 36 35 23 42 -28z m28 -34 c0 -26 -2 -27 -9 -10 -5 11 -9 34 -9 50 0 26 2 27 9 10 5 -11 9 -33 9 -50z"/> <path d="M1340 151 c0 -45 4 -53 50 -101 27 -28 55 -50 61 -48 6 2 -15 29 -46 61 -55 55 -57 59 -51 97 4 25 2 40 -4 40 -5 0 -10 -22 -10 -49z"/> <path d="M2138 90 c-2 -50 0 -90 5 -90 4 0 7 40 7 90 0 50 -2 90 -4 90 -3 0 -6 -41 -8 -90z"/> <path d="M2945 95 c-35 -16 -43 -24 -28 -24 23 -1 83 29 83 42 0 9 4 10 -55 -18z"/> <path d="M276 17 c-15 -11 -12 -12 24 -12 36 0 39 1 24 12 -10 7 -21 13 -24 13 -3 0 -14 -6 -24 -13z"/> <path d="M175 10 c-15 -6 -9 -9 25 -9 34 0 40 3 25 9 -11 5 -22 9 -25 9 -3 0 -14 -4 -25 -9z"/> </g> </svg> 